<svg xmlns="http://www.w3.org/2000/svg" style="display:none" aria-hidden="true">
  <!--
    Sprite ikon Aomi.
    Dipakai lewat <use href="components/icons.svg#nama" />.
    Stroke-based (mengikuti currentColor), ringan, tanpa font ikon.
  -->

  <symbol id="logo" viewBox="0 0 24 24">
    <path d="M21 11.5a8.5 8.5 0 0 1-8.5 8.5c-1.5 0-3-.4-4.2-1.1L3 20l1.1-5.3A8.5 8.5 0 1 1 21 11.5z"/>
    <circle cx="9" cy="11.5" r="0.5"/>
    <circle cx="13" cy="11.5" r="0.5"/>
    <circle cx="17" cy="11.5" r="0.5"/>
  </symbol>

  <symbol id="plus" viewBox="0 0 24 24">
    <path d="M12 5v14M5 12h14"/>
  </symbol>

  <symbol id="menu" viewBox="0 0 24 24">
    <path d="M4 6h16M4 12h16M4 18h16"/>
  </symbol>

  <symbol id="close" viewBox="0 0 24 24">
    <path d="M6 6l12 12M18 6L6 18"/>
  </symbol>

  <symbol id="search" viewBox="0 0 24 24">
    <circle cx="11" cy="11" r="7"/>
    <path d="M21 21l-4.35-4.35"/>
  </symbol>

  <symbol id="trash" viewBox="0 0 24 24">
    <path d="M3 6h18"/>
    <path d="M19 6v14a2 2 0 0 1-2 2H7a2 2 0 0 1-2-2V6"/>
    <path d="M8 6V4a2 2 0 0 1 2-2h4a2 2 0 0 1 2 2v2"/>
    <path d="M10 11v6M14 11v6"/>
  </symbol>

  <symbol id="send" viewBox="0 0 24 24">
    <path d="M12 19V5M5 12l7-7 7 7"/>
  </symbol>

  <symbol id="chevron-down" viewBox="0 0 24 24">
    <path d="M6 9l6 6 6-6"/>
  </symbol>

  <symbol id="gear" viewBox="0 0 24 24">
    <circle cx="12" cy="12" r="3"/>
    <path d="M19.4 15a1.65 1.65 0 0 0 .33 1.82l.06.06a2 2 0 1 1-2.83 2.83l-.06-.06a1.65 1.65 0 0 0-1.82-.33 1.65 1.65 0 0 0-1 1.51V21a2 2 0 1 1-4 0v-.09A1.65 1.65 0 0 0 9 19.4a1.65 1.65 0 0 0-1.82.33l-.06.06a2 2 0 1 1-2.83-2.83l.06-.06a1.65 1.65 0 0 0 .33-1.82 1.65 1.65 0 0 0-1.51-1H3a2 2 0 1 1 0-4h.09A1.65 1.65 0 0 0 4.6 9a1.65 1.65 0 0 0-.33-1.82l-.06-.06a2 2 0 1 1 2.83-2.83l.06.06a1.65 1.65 0 0 0 1.82.33H9a1.65 1.65 0 0 0 1-1.51V3a2 2 0 1 1 4 0v.09a1.65 1.65 0 0 0 1 1.51 1.65 1.65 0 0 0 1.82-.33l.06-.06a2 2 0 1 1 2.83 2.83l-.06.06a1.65 1.65 0 0 0-.33 1.82V9a1.65 1.65 0 0 0 1.51 1H21a2 2 0 1 1 0 4h-.09a1.65 1.65 0 0 0-1.51 1z"/>
  </symbol>

  <symbol id="user" viewBox="0 0 24 24">
    <path d="M20 21v-2a4 4 0 0 0-4-4H8a4 4 0 0 0-4 4v2"/>
    <circle cx="12" cy="7" r="4"/>
  </symbol>
  <symbol id="chevron-left" viewBox="0 0 24 24"><path d="m15 18-6-6 6-6"/></symbol>

  <symbol id="eye" viewBox="0 0 24 24"><path d="M2 12s3.5-7 10-7 10 7 10 7-3.5 7-10 7-10-7-10-7Z"/><circle cx="12" cy="12" r="3"/></symbol>

  <symbol id="eye-off" viewBox="0 0 24 24"><path d="M9.9 4.24A9.12 9.12 0 0 1 12 4c6.5 0 10 7 10 7a13.16 13.16 0 0 1-1.67 2.68"/><path d="M6.61 6.11A13.5 13.5 0 0 0 2 11s3.5 7 10 7a9.74 9.74 0 0 0 5.39-1.61"/><path d="m2 2 20 20"/><path d="M14.12 14.12a3 3 0 1 1-4.24-4.24"/></symbol>

  <symbol id="check" viewBox="0 0 24 24"><path d="M20 6 9 17l-5-5"/></symbol>

  <symbol id="download" viewBox="0 0 24 24"><path d="M21 15v4a2 2 0 0 1-2 2H5a2 2 0 0 1-2-2v-4"/><polyline points="7 10 12 15 17 10"/><line x1="12" y1="15" x2="12" y2="3"/></symbol>
  <symbol id="copy" viewBox="0 0 24 24"><rect x="9" y="9" width="12" height="12" rx="2"/><path d="M5 15H4a2 2 0 0 1-2-2V4a2 2 0 0 1 2-2h9a2 2 0 0 1 2 2v1"/></symbol>

  <symbol id="image" viewBox="0 0 24 24"><rect x="3" y="3" width="18" height="18" rx="2"/><circle cx="9" cy="9" r="2"/><path d="m21 15-3.1-3.1a2 2 0 0 0-2.8 0L6 21"/></symbol>

  <symbol id="sliders" viewBox="0 0 24 24"><line x1="4" y1="21" x2="4" y2="14"/><line x1="4" y1="10" x2="4" y2="3"/><line x1="12" y1="21" x2="12" y2="12"/><line x1="12" y1="8" x2="12" y2="3"/><line x1="20" y1="21" x2="20" y2="16"/><line x1="20" y1="12" x2="20" y2="3"/><line x1="1" y1="14" x2="7" y2="14"/><line x1="9" y1="8" x2="15" y2="8"/><line x1="17" y1="16" x2="23" y2="16"/></symbol>

  <symbol id="shield" viewBox="0 0 24 24"><path d="M20 13c0 5-3.5 7.5-7.66 8.95a1 1 0 0 1-.67-.01C7.5 20.5 4 18 4 13V6a1 1 0 0 1 1-1c2 0 4.5-1.2 6.24-2.72a1.17 1.17 0 0 1 1.52 0C14.51 3.81 17 5 19 5a1 1 0 0 1 1 1z"/></symbol>

  <symbol id="logout" viewBox="0 0 24 24"><path d="M9 21H5a2 2 0 0 1-2-2V5a2 2 0 0 1 2-2h4"/><polyline points="16 17 21 12 16 7"/><line x1="21" y1="12" x2="9" y2="12"/></symbol>
  <symbol id="mail" viewBox="0 0 24 24"><rect x="2" y="4" width="20" height="16" rx="2"/><path d="m22 6-10 7L2 6"/></symbol>
  <symbol id="key" viewBox="0 0 24 24"><circle cx="7.5" cy="15.5" r="5.5"/><path d="m21 2-9.6 9.6"/><path d="m15.5 7.5 3 3L21 8l-3-3"/></symbol>
  <symbol id="music" viewBox="0 0 24 24"><path d="M9 18V5l12-2v13"/><circle cx="6" cy="18" r="3"/><circle cx="18" cy="16" r="3"/></symbol>
  <symbol id="more" viewBox="0 0 24 24"><circle cx="5" cy="12" r="1.6" fill="currentColor" stroke="none"/><circle cx="12" cy="12" r="1.6" fill="currentColor" stroke="none"/><circle cx="19" cy="12" r="1.6" fill="currentColor" stroke="none"/></symbol>

</svg>
